<svg width="24" height="24" viewBox="0 0 24 24" fill="none" xmlns="http://www.w3.org/2000/svg">
<g clip-path="url(#clip0_38_149)">
<path d="M23.1538 12.0769C23.1538 18.1942 18.1942 23.1538 12.0769 23.1538C5.95969 23.1538 1 18.1942 1 12.0769C1 5.95969 5.95969 1 12.0769 1C18.1942 1 23.1538 5.95969 23.1538 12.0769Z" fill="white"/>
<path fill-rule="evenodd" clip-rule="evenodd" d="M18.4617 6.92303C18.4617 6.06618 18.1213 5.24442 17.5154 4.63853C16.9095 4.03264 16.0877 3.69226 15.2309 3.69226H8.76934C7.91249 3.69226 7.09073 4.03264 6.48485 4.63853C5.87896 5.24442 5.53857 6.06618 5.53857 6.92303V13.343C5.53827 14.0332 5.75903 14.7054 6.16849 15.2611C6.57796 15.8167 7.15461 16.2266 7.81396 16.4307C9.16893 16.8553 10.5802 17.0732 12.0001 17.0769C13.4201 17.0729 14.8313 16.8547 16.1863 16.4298C16.8455 16.2257 17.422 15.816 17.8315 15.2605C18.2409 14.7051 18.4618 14.0331 18.4617 13.343V6.92303ZM6.46165 13.343V6.92303C6.46165 6.31099 6.70478 5.72402 7.13756 5.29125C7.57034 4.85847 8.15731 4.61534 8.76934 4.61534H15.2309C15.8429 4.61534 16.4299 4.85847 16.8627 5.29125C17.2954 5.72402 17.5386 6.31099 17.5386 6.92303V13.343C17.5386 13.8358 17.3809 14.3156 17.0885 14.7122C16.7962 15.1088 16.3846 15.4015 15.914 15.5473C14.6473 15.9452 13.3278 16.1496 12.0001 16.1538C10.6724 16.1496 9.35296 15.9452 8.08627 15.5473C7.61562 15.4015 7.20401 15.1088 6.91168 14.7122C6.61935 14.3156 6.46165 13.8358 6.46165 13.343Z" fill="#7C8081"/>
<path fill-rule="evenodd" clip-rule="evenodd" d="M8.76889 14.7692C9.13612 14.7692 9.4883 14.6234 9.74796 14.3637C10.0076 14.104 10.1535 13.7518 10.1535 13.3846C10.1535 13.0174 10.0076 12.6652 9.74796 12.4055C9.4883 12.1459 9.13612 12 8.76889 12C8.40167 12 8.04949 12.1459 7.78982 12.4055C7.53016 12.6652 7.38428 13.0174 7.38428 13.3846C7.38428 13.7518 7.53016 14.104 7.78982 14.3637C8.04949 14.6234 8.40167 14.7692 8.76889 14.7692ZM8.76889 12.9231C8.8913 12.9231 9.00869 12.9717 9.09525 13.0583C9.18181 13.1448 9.23043 13.2622 9.23043 13.3846C9.23043 13.507 9.18181 13.6244 9.09525 13.711C9.00869 13.7975 8.8913 13.8462 8.76889 13.8462C8.64649 13.8462 8.52909 13.7975 8.44254 13.711C8.35598 13.6244 8.30735 13.507 8.30735 13.3846C8.30735 13.2622 8.35598 13.1448 8.44254 13.0583C8.52909 12.9717 8.64649 12.9231 8.76889 12.9231ZM15.2304 14.7692C15.5977 14.7692 15.9498 14.6234 16.2095 14.3637C16.4692 14.104 16.615 13.7518 16.615 13.3846C16.615 13.0174 16.4692 12.6652 16.2095 12.4055C15.9498 12.1459 15.5977 12 15.2304 12C14.8632 12 14.511 12.1459 14.2514 12.4055C13.9917 12.6652 13.8458 13.0174 13.8458 13.3846C13.8458 13.7518 13.9917 14.104 14.2514 14.3637C14.511 14.6234 14.8632 14.7692 15.2304 14.7692ZM15.2304 12.9231C15.3528 12.9231 15.4702 12.9717 15.5568 13.0583C15.6433 13.1448 15.692 13.2622 15.692 13.3846C15.692 13.507 15.6433 13.6244 15.5568 13.711C15.4702 13.7975 15.3528 13.8462 15.2304 13.8462C15.108 13.8462 14.9906 13.7975 14.9041 13.711C14.8175 13.6244 14.7689 13.507 14.7689 13.3846C14.7689 13.2622 14.8175 13.1448 14.9041 13.0583C14.9906 12.9717 15.108 12.9231 15.2304 12.9231Z" fill="#7C8081"/>
<path d="M17.1062 20.0087C17.1514 20.1201 17.2383 20.2095 17.3485 20.2579C17.4586 20.3062 17.5833 20.3096 17.6959 20.2673C17.8085 20.2251 17.9002 20.1406 17.9515 20.0317C18.0027 19.9229 18.0094 19.7984 17.9702 19.6847L16.5855 15.9923C16.5396 15.8821 16.4526 15.7941 16.3431 15.7466C16.2335 15.6991 16.1098 15.696 15.9979 15.7378C15.8861 15.7796 15.7948 15.8632 15.7433 15.9709C15.6917 16.0786 15.6839 16.2021 15.7215 16.3154L17.1062 20.0087ZM7.87538 15.9923C7.89493 15.9334 7.92615 15.8791 7.96719 15.8325C8.00823 15.786 8.05824 15.7481 8.11422 15.7214C8.17021 15.6946 8.23102 15.6793 8.29303 15.6766C8.35503 15.6739 8.41696 15.6836 8.47509 15.7054C8.53323 15.7271 8.58638 15.7604 8.63137 15.8031C8.67636 15.8459 8.71227 15.8973 8.73694 15.9542C8.76161 16.0112 8.77455 16.0725 8.77497 16.1346C8.77539 16.1966 8.76328 16.2581 8.73938 16.3154L7.35477 20.0077C7.30878 20.1179 7.22187 20.206 7.1123 20.2535C7.00273 20.301 6.87902 20.3041 6.76717 20.2623C6.65532 20.2205 6.56404 20.1369 6.51249 20.0292C6.46095 19.9215 6.45316 19.798 6.49077 19.6847L7.87538 15.9923Z" fill="#7C8081"/>
<path fill-rule="evenodd" clip-rule="evenodd" d="M16.615 7.38461C16.615 6.89498 16.4205 6.4254 16.0743 6.07918C15.7281 5.73296 15.2585 5.53845 14.7689 5.53845H9.23043C8.7408 5.53845 8.27122 5.73296 7.925 6.07918C7.57878 6.4254 7.38428 6.89498 7.38428 7.38461V9.7523C7.38431 10.1524 7.51431 10.5416 7.75471 10.8614C7.9951 11.1812 8.33289 11.4143 8.7172 11.5255C9.81012 11.8418 10.9043 12 11.9997 12C13.095 12 14.1892 11.8418 15.2821 11.5255C15.6664 11.4143 16.0042 11.1812 16.2446 10.8614C16.485 10.5416 16.615 10.1524 16.615 9.7523V7.38461ZM8.30735 9.7523V7.38461C8.30735 7.13979 8.40461 6.905 8.57772 6.73189C8.75083 6.55878 8.98562 6.46153 9.23043 6.46153H14.7689C15.0137 6.46153 15.2485 6.55878 15.4216 6.73189C15.5947 6.905 15.692 7.13979 15.692 7.38461V9.7523C15.6919 9.95226 15.6268 10.1468 15.5066 10.3066C15.3864 10.4664 15.2176 10.5829 15.0255 10.6385C14.0425 10.9261 13.0239 11.0737 11.9997 11.0769C10.9923 11.0769 9.98366 10.9311 8.97382 10.6394C8.78158 10.5837 8.61264 10.4671 8.49243 10.3071C8.37222 10.1471 8.30727 9.95242 8.30735 9.7523Z" fill="#7C8081"/>
<path d="M7.61535 18.9231C7.49294 18.9231 7.37555 18.8745 7.28899 18.7879C7.20243 18.7013 7.15381 18.5839 7.15381 18.4615C7.15381 18.3391 7.20243 18.2217 7.28899 18.1352C7.37555 18.0486 7.49294 18 7.61535 18H16.8461C16.9685 18 17.0859 18.0486 17.1725 18.1352C17.259 18.2217 17.3077 18.3391 17.3077 18.4615C17.3077 18.5839 17.259 18.7013 17.1725 18.7879C17.0859 18.8745 16.9685 18.9231 16.8461 18.9231H7.61535Z" fill="#7C8081"/>
<path fill-rule="evenodd" clip-rule="evenodd" d="M11.9999 22.6154C17.8623 22.6154 22.6153 17.8625 22.6153 12C22.6153 6.13755 17.8623 1.38462 11.9999 1.38462C6.13743 1.38462 1.3845 6.13755 1.3845 12C1.3845 17.8625 6.13743 22.6154 11.9999 22.6154ZM11.9999 23.5385C18.3728 23.5385 23.5383 18.3729 23.5383 12C23.5383 5.62709 18.3728 0.461548 11.9999 0.461548C5.62696 0.461548 0.461426 5.62709 0.461426 12C0.461426 18.3729 5.62696 23.5385 11.9999 23.5385Z" fill="#7C8081"/>
</g>
<defs>
<clipPath id="clip0_38_149">
<rect width="24" height="24" fill="white"/>
</clipPath>
</defs>
</svg>
